<svg width="1431" height="1080" viewBox="0 0 1431 1080" fill="none" xmlns="http://www.w3.org/2000/svg">
<path fill-rule="evenodd" clip-rule="evenodd" d="M630 862.097C630 1088.67 796.263 1266.34 1053.81 1266.34H1117.38L1166.28 1111.49H1065.22C887.544 1111.49 794.633 995.759 794.633 860.467C794.633 718.654 898.955 622.483 1029.36 622.483C1164.65 622.483 1267.34 713.764 1267.34 881.657V959.633L1430.34 959.633V876.767C1430.34 622.483 1260.82 466 1030.99 466C804.413 466 630 627.373 630 862.097ZM1430.34 1081.89L1267.34 1081.89V1266.34H1430.34V1081.89Z" fill="#F5F5F5"/>
<path fill-rule="evenodd" clip-rule="evenodd" d="M800.344 209.097C800.344 435.671 634.081 613.344 376.536 613.344H312.965L264.065 458.491H365.126C542.799 458.491 635.711 342.759 635.711 207.467C635.711 65.6544 531.389 -30.5173 400.987 -30.5173C265.695 -30.5173 163.003 60.7642 163.003 228.657V306.633L0 306.633V223.767C0 -30.5172 169.523 -187 399.357 -187C625.931 -187 800.344 -25.6272 800.344 209.097ZM0 428.885L163.003 428.885V613.344H0V428.885Z" fill="#F5F5F5"/>
</svg>
