<svg width="170" height="170" viewBox="0 0 170 170" fill="none" xmlns="http://www.w3.org/2000/svg">
<mask id="mask0_1015_4364" style="mask-type:alpha" maskUnits="userSpaceOnUse" x="0" y="0" width="171" height="170">
<path d="M0.000488281 0H155.834C163.658 0 170 6.34262 170 14.1666V170H0.000488281V0Z" fill="#FF4085"/>
</mask>
<g mask="url(#mask0_1015_4364)">
<path d="M121.834 -25.5C68.6314 -25.5 25.501 11.7561 25.501 57.7143C25.501 83.5233 39.1034 106.589 60.455 121.852C59.501 127.5 58.1371 132.066 47.4672 141.5C43.7603 144.778 46.652 150.919 51.5095 150.091C65.3638 147.729 80.751 144.5 96.6413 138.053C104.671 139.928 113.118 140.927 121.834 140.927C175.037 140.927 218.168 103.671 218.168 57.7125C218.168 11.7543 175.037 -25.5 121.834 -25.5Z" fill="white"/>
</g>
<path fill-rule="evenodd" clip-rule="evenodd" d="M59.8518 60.288C59.8518 86.3152 78.9509 106.725 108.536 106.725H115.838L121.456 88.9367H109.847C89.4367 88.9367 78.7637 75.6422 78.7637 60.1007C78.7637 43.8103 90.7475 32.7628 105.727 32.7628C121.269 32.7628 133.065 43.2486 133.065 62.5349V71.4924L151.79 71.4924V61.9732C151.79 32.7628 132.316 14.7871 105.914 14.7871C79.8872 14.7871 59.8518 33.3245 59.8518 60.288ZM151.79 85.5358L133.065 85.5358V106.725H151.79V85.5358Z" fill="#FF4085"/>
</svg>
