<svg width="60" height="60" viewBox="0 0 60 60" fill="none" xmlns="http://www.w3.org/2000/svg">
<rect width="60" height="60" rx="14" fill="#FF4085"/>
<path fill-rule="evenodd" clip-rule="evenodd" d="M59.9533 47.152C59.9842 46.7721 60 46.3879 60 46V14C60 6.26801 53.732 0 46 0H19.4039C11.2573 5.36554 6 13.8373 6 23.3697C6 32.4788 10.8008 40.6197 18.3367 46.0065C18 48 17.5186 49.6115 13.7528 52.9412C12.4445 54.0981 13.4651 56.2656 15.1795 55.9732C20.0692 55.1397 25.5 54 31.1083 51.7246C33.9425 52.3864 36.9238 52.7389 40 52.7389C47.4548 52.7389 54.3492 50.6664 59.9533 47.152Z" fill="white"/>
<path fill-rule="evenodd" clip-rule="evenodd" d="M17.79 24.6109C17.79 33.797 24.5309 41.0005 34.9726 41.0005H37.55L39.5326 34.7222H35.4353C28.2318 34.7222 24.4648 30.03 24.4648 24.5448C24.4648 18.7952 28.6944 14.8961 33.9813 14.8961C39.4666 14.8961 43.63 18.597 43.63 25.4039V28.5654H50.2387V25.2057C50.2387 14.8961 43.3657 8.55176 34.0474 8.55176C24.8613 8.55176 17.79 15.0944 17.79 24.6109ZM50.2387 33.522H43.63V41.0005H50.2387V33.522Z" fill="#FF4085"/>
</svg>
