<svg width="1431" height="1080" viewBox="0 0 1431 1080" fill="none" xmlns="http://www.w3.org/2000/svg">
<path fill-rule="evenodd" clip-rule="evenodd" d="M630 862.097C630 1088.67 796.263 1266.34 1053.81 1266.34H1117.38L1166.28 1111.49H1065.22C887.544 1111.49 794.633 995.759 794.633 860.467C794.633 718.654 898.955 622.483 1029.36 622.483C1164.65 622.483 1267.34 713.764 1267.34 881.657V959.633L1430.34 959.633V876.767C1430.34 622.483 1260.82 466 1030.99 466C804.413 466 630 627.373 630 862.097ZM1430.34 1081.89L1267.34 1081.89V1266.34H1430.34V1081.89Z" fill="#F5F5F5"/>
<path fill-rule="evenodd" clip-rule="evenodd" d="M800.344 209.097C800.344 435.671 634.081 613.344 376.536 613.344H312.965L264.065 458.491H365.126C542.799 458.491 635.711 342.759 635.711 207.467C635.711 65.6544 531.389 -30.5173 400.987 -30.5173C265.695 -30.5173 163.003 60.7642 163.003 228.657V306.633L0 306.633V223.767C0 -30.5172 169.523 -187 399.357 -187C625.931 -187 800.344 -25.6272 800.344 209.097ZM0 428.885L163.003 428.885V613.344H0V428.885Z" fill="#F5F5F5"/>
<mask id="mask0_1395_4647" style="mask-type:alpha" maskUnits="userSpaceOnUse" x="849" y="211" width="171" height="170">
<path d="M849 211H1004.83C1012.66 211 1019 217.343 1019 225.167V381H849V211Z" fill="#FF4085"/>
</mask>
<g mask="url(#mask0_1395_4647)">
<path d="M970.834 185.5C917.631 185.5 874.501 222.756 874.501 268.714C874.501 294.523 888.103 317.589 909.455 332.852C908.501 338.5 907.137 343.066 896.467 352.5C892.76 355.778 895.652 361.919 900.509 361.091C914.364 358.729 929.751 355.5 945.641 349.053C953.671 350.928 962.118 351.927 970.834 351.927C1024.04 351.927 1067.17 314.671 1067.17 268.713C1067.17 222.754 1024.04 185.5 970.834 185.5Z" fill="white"/>
</g>
<path fill-rule="evenodd" clip-rule="evenodd" d="M908.852 271.288C908.852 297.315 927.951 317.725 957.536 317.725H964.839L970.456 299.937H958.847C938.437 299.937 927.764 286.642 927.764 271.101C927.764 254.81 939.748 243.763 954.727 243.763C970.269 243.763 982.065 254.249 982.065 273.535V282.492L1000.79 282.492V272.973C1000.79 243.763 981.316 225.787 954.915 225.787C928.887 225.787 908.852 244.325 908.852 271.288ZM1000.79 296.536H982.065V317.725H1000.79V296.536Z" fill="#FF4085"/>
<path d="M124.242 598.089L97.147 607.934C111.893 623.245 142.535 664.237 147.135 705.717C165.712 646.133 139.613 609.138 124.242 598.089Z" fill="#5DCD19"/>
<path d="M317.552 709.696L322.573 738.084C301.94 732.968 251.119 726.927 212.897 743.685C255.209 697.805 300.297 701.909 317.552 709.696Z" fill="#FF4085"/>
<path d="M214.651 703.916C194.502 734.86 158.695 742.912 143.311 743.069C144.675 744.945 148.015 749.048 150.462 750.461C186.912 740.306 197.256 734.044 220.615 707.36C243.974 680.675 270.963 655.474 298.703 653.342C320.895 651.636 342.689 659.094 350.813 663.036C350.986 660.146 351.402 652.691 351.677 645.999C289.655 614.268 239.838 665.236 214.651 703.916Z" fill="#1961CD"/>
<path d="M222.874 524.733L204.083 524.08C214.962 540.557 212.993 569.396 207.153 602.116C201.312 634.836 176.779 654.725 153.341 689.317C134.59 716.99 134.779 743.717 137.218 753.621L156.736 743.479C154.822 735.373 153.422 714.323 163.129 694.968C175.262 670.774 195.626 662.344 220.305 609.709C240.048 567.602 230.244 535.514 222.874 524.733Z" fill="#00C8F4"/>
<path d="M162.949 562.932L144.157 556.885L138.04 581.993L158.089 584.318L162.949 562.932Z" fill="#00C8F4"/>
<path d="M307.258 620.557L318.574 624.221L322.197 609.199L310.133 607.761L307.258 620.557Z" fill="#00C8F4"/>
<circle cx="354.773" cy="698.56" r="10.9488" transform="rotate(30 354.773 698.56)" fill="#5DCD19"/>
<path d="M198.287 693.409L182.213 678.866L175.564 699.497L198.287 693.409Z" fill="#FBF226"/>
<path d="M259.448 698.909L256.138 684.843L244.676 693.642L259.448 698.909Z" fill="#FBF226"/>
<path d="M257.908 768.129L266.599 756.584L252.502 753.407L257.908 768.129Z" fill="#FBF226"/>
<path d="M179.642 603.407L188.333 591.862L174.236 588.686L179.642 603.407Z" fill="#FBF226"/>
<rect x="226.829" y="651.199" width="18.3657" height="18.3657" transform="rotate(54.0992 226.829 651.199)" fill="#00C8F4"/>
<path d="M96.1296 869.711L221.542 756.433L125.959 701.2L96.1296 869.711Z" fill="#FF4085"/>
<mask id="mask1_1395_4647" style="mask-type:alpha" maskUnits="userSpaceOnUse" x="96" y="701" width="126" height="169">
<path d="M96.1296 869.711L221.542 756.433L125.959 701.2L96.1296 869.711Z" fill="#FF4085"/>
</mask>
<g mask="url(#mask1_1395_4647)">
<rect x="179.265" y="685.951" width="14" height="131" transform="rotate(60 179.265 685.951)" fill="white"/>
<rect x="191.989" y="705.764" width="14" height="131" transform="rotate(60 191.989 705.764)" fill="white"/>
<rect x="211.181" y="722.764" width="14" height="162.398" transform="rotate(60 211.181 722.764)" fill="white"/>
<rect x="224.181" y="744.764" width="14" height="162.398" transform="rotate(60 224.181 744.764)" fill="white"/>
<rect x="215.181" y="777.764" width="14" height="162.398" transform="rotate(60 215.181 777.764)" fill="white"/>
</g>
<path fill-rule="evenodd" clip-rule="evenodd" d="M164 497.352C164 503.846 168.765 508.938 176.146 508.938H177.968L179.37 504.5H176.473C171.381 504.5 168.718 501.183 168.718 497.305C168.718 493.241 171.708 490.485 175.446 490.485C179.323 490.485 182.266 493.101 182.266 497.913V500.148L186.938 500.148V497.773C186.938 490.485 182.079 486 175.492 486C168.999 486 164 490.625 164 497.352ZM186.938 503.651L182.266 503.651V508.938H186.938V503.651Z" fill="#FF4085"/>
<path fill-rule="evenodd" clip-rule="evenodd" d="M258.938 616.352C258.938 622.846 254.173 627.938 246.792 627.938H244.97L243.568 623.5H246.465C251.557 623.5 254.22 620.183 254.22 616.305C254.22 612.241 251.23 609.485 247.492 609.485C243.615 609.485 240.672 612.101 240.672 616.913V619.148L236 619.148V616.773C236 609.485 240.859 605 247.446 605C253.939 605 258.938 609.625 258.938 616.352ZM236 622.651L240.672 622.651V627.938H236V622.651Z" fill="#FF4085"/>
<path d="M1305.76 362.089L1332.85 371.934C1318.11 387.245 1287.46 428.237 1282.87 469.717C1264.29 410.133 1290.39 373.138 1305.76 362.089Z" fill="#5DCD19"/>
<path d="M1112.45 473.696L1107.43 502.084C1128.06 496.968 1178.88 490.927 1217.1 507.685C1174.79 461.805 1129.7 465.909 1112.45 473.696Z" fill="#FF4085"/>
<path d="M1215.35 467.916C1235.5 498.86 1271.3 506.912 1286.69 507.069C1285.33 508.945 1281.98 513.048 1279.54 514.461C1243.09 504.306 1232.74 498.044 1209.38 471.36C1186.03 444.675 1159.04 419.474 1131.3 417.342C1109.11 415.636 1087.31 423.094 1079.19 427.036C1079.01 424.146 1078.6 416.691 1078.32 409.999C1140.34 378.268 1190.16 429.236 1215.35 467.916Z" fill="#1961CD"/>
<path d="M1207.13 288.733L1225.92 288.08C1215.04 304.557 1217.01 333.396 1222.85 366.116C1228.69 398.836 1253.22 418.725 1276.66 453.317C1295.41 480.99 1295.22 507.717 1292.78 517.621L1273.26 507.479C1275.18 499.373 1276.58 478.323 1266.87 458.968C1254.74 434.774 1234.37 426.344 1209.69 373.709C1189.95 331.602 1199.76 299.514 1207.13 288.733Z" fill="#00C8F4"/>
<path d="M1267.05 326.932L1285.84 320.885L1291.96 345.993L1271.91 348.318L1267.05 326.932Z" fill="#00C8F4"/>
<path d="M1122.74 384.557L1111.43 388.221L1107.8 373.199L1119.87 371.761L1122.74 384.557Z" fill="#00C8F4"/>
<circle cx="10.9488" cy="10.9488" r="10.9488" transform="matrix(-0.866025 0.5 0.5 0.866025 1079.23 447.604)" fill="#5DCD19"/>
<path d="M1231.71 457.409L1247.79 442.866L1254.44 463.497L1231.71 457.409Z" fill="#FBF226"/>
<path d="M1170.55 462.909L1173.86 448.843L1185.32 457.642L1170.55 462.909Z" fill="#FBF226"/>
<path d="M1172.09 532.129L1163.4 520.584L1177.5 517.407L1172.09 532.129Z" fill="#FBF226"/>
<path d="M1250.36 367.407L1241.67 355.862L1255.76 352.686L1250.36 367.407Z" fill="#FBF226"/>
<rect width="18.3657" height="18.3657" transform="matrix(-0.586383 0.810034 0.810034 0.586383 1203.17 415.199)" fill="#00C8F4"/>
<path d="M1333.87 633.711L1208.46 520.433L1304.04 465.2L1333.87 633.711Z" fill="#FF4085"/>
<mask id="mask2_1395_4647" style="mask-type:alpha" maskUnits="userSpaceOnUse" x="1208" y="465" width="126" height="169">
<path d="M1333.87 633.711L1208.46 520.433L1304.04 465.2L1333.87 633.711Z" fill="#FF4085"/>
</mask>
<g mask="url(#mask2_1395_4647)">
<rect width="14" height="131" transform="matrix(-0.5 0.866025 0.866025 0.5 1250.74 449.951)" fill="white"/>
<rect width="14" height="131" transform="matrix(-0.5 0.866025 0.866025 0.5 1238.01 469.764)" fill="white"/>
<rect width="14" height="162.398" transform="matrix(-0.5 0.866025 0.866025 0.5 1218.82 486.764)" fill="white"/>
<rect width="14" height="162.398" transform="matrix(-0.5 0.866025 0.866025 0.5 1205.82 508.764)" fill="white"/>
<rect width="14" height="162.398" transform="matrix(-0.5 0.866025 0.866025 0.5 1214.82 541.764)" fill="white"/>
</g>
<path fill-rule="evenodd" clip-rule="evenodd" d="M1266 261.352C1266 267.846 1261.23 272.938 1253.85 272.938H1252.03L1250.63 268.5H1253.53C1258.62 268.5 1261.28 265.183 1261.28 261.305C1261.28 257.241 1258.29 254.485 1254.55 254.485C1250.68 254.485 1247.73 257.101 1247.73 261.913V264.148L1243.06 264.148V261.773C1243.06 254.485 1247.92 250 1254.51 250C1261 250 1266 254.625 1266 261.352ZM1243.06 267.651L1247.73 267.651V272.938H1243.06V267.651Z" fill="#FF4085"/>
<path fill-rule="evenodd" clip-rule="evenodd" d="M1171.06 380.352C1171.06 386.846 1175.83 391.938 1183.21 391.938H1185.03L1186.43 387.5H1183.54C1178.44 387.5 1175.78 384.183 1175.78 380.305C1175.78 376.241 1178.77 373.485 1182.51 373.485C1186.39 373.485 1189.33 376.101 1189.33 380.913V383.148L1194 383.148V380.773C1194 373.485 1189.14 369 1182.55 369C1176.06 369 1171.06 373.625 1171.06 380.352ZM1194 386.651L1189.33 386.651V391.938H1194V386.651Z" fill="#FF4085"/>
</svg>
