<svg width="50" height="50" viewBox="0 0 50 50" fill="none" xmlns="http://www.w3.org/2000/svg">
<circle cx="25" cy="25" r="25" fill="#F5F5F5"/>
<path fill-rule="evenodd" clip-rule="evenodd" d="M21.6141 15.1145C20.7222 15.4263 19.939 15.8868 19.261 16.4995C17.8977 17.7359 16.9623 19.6067 16.4619 22.181C16.4474 22.2463 15.7114 29.7878 15.6027 30.8827L13.09 34.5592C12.9813 34.7187 12.9704 34.9218 13.061 35.0922C13.1517 35.2626 13.3257 35.3677 13.5179 35.3677H20.8454C21.1572 36.8325 22.7671 38 24.7648 38C26.7626 38 28.3797 36.8289 28.6842 35.3677H36.0118C36.204 35.3677 36.3816 35.2626 36.4686 35.0922C36.5593 34.9218 36.5448 34.7151 36.4396 34.5592L33.9234 30.8827C33.8146 29.7841 33.0786 22.2499 33.0641 22.181C32.5637 19.5632 31.6247 17.6924 30.265 16.4669C29.5907 15.8578 28.8075 15.4045 27.9156 15.1036C27.8902 13.385 26.487 12 24.7648 12C23.0426 12 21.6322 13.3923 21.6141 15.1145ZM27.6146 35.3714C27.2883 36.314 26.1172 36.9667 24.7648 36.9667C23.4124 36.9667 22.2341 36.314 21.915 35.3714H27.6146ZM24.7431 15.6692H24.7213H24.6996H24.6923H24.6778H24.6706H24.6561H24.6488H24.6343H24.6053H24.5835H24.5618H24.54H24.5183H24.4965H24.4748H24.453C23.6735 15.691 22.9592 15.7925 22.3102 15.9883C22.2812 15.9955 22.2522 16.0028 22.2196 16.0064C21.353 16.2675 20.6025 16.6844 19.9608 17.2645C18.7389 18.374 17.9304 20.0672 17.4844 22.3732C17.4699 22.4457 16.6287 31.1111 16.6287 31.1111C16.6215 31.1982 16.5888 31.2816 16.5417 31.3541L14.5041 34.3308H35.0329L32.9952 31.3541C32.9444 31.2816 32.9154 31.1982 32.9082 31.1111C32.9082 31.1111 32.0634 22.4421 32.0525 22.3695C31.6066 20.0237 30.798 18.3305 29.5762 17.2319C28.938 16.6554 28.1839 16.2493 27.321 15.9955C27.292 15.9955 27.2593 15.9847 27.2303 15.9774C26.5451 15.778 25.7873 15.6765 24.957 15.6656H24.9425H24.9352H24.9244H24.9135H24.9026H24.8917H24.8809H24.87H24.8591H24.8446H24.8337H24.812H24.7902H24.7685H24.7467L24.7431 15.6692ZM19.2973 32.3258H30.2324C30.5188 32.3258 30.7509 32.0937 30.7509 31.8073C30.7509 31.5208 30.5188 31.2888 30.2324 31.2888H19.2973C19.0108 31.2888 18.7788 31.5208 18.7788 31.8073C18.7788 32.0937 19.0108 32.3258 19.2973 32.3258ZM24.7902 14.6323H24.8192H24.8337H24.8482H24.8736H24.899H24.9244H24.9389H24.9425C24.957 14.6323 24.9715 14.6323 24.9896 14.6323C25.6495 14.6431 26.2695 14.7048 26.8496 14.8208C26.6901 13.8092 25.8163 13.037 24.7612 13.037C23.7061 13.037 22.8287 13.8129 22.6728 14.8281C23.2674 14.7084 23.9055 14.6431 24.5835 14.6323H24.6017H24.6271H24.6561H24.6814H24.6923H24.7104C24.7177 14.6323 24.7249 14.6323 24.7322 14.6323H24.7866H24.7902Z" fill="#525252" stroke="#525252" stroke-width="0.8"/>
</svg>
